<svg width="143" height="28" viewBox="0 0 143 28" fill="none" xmlns="http://www.w3.org/2000/svg">
<path d="M20.584 6.41602H13.3945V27H7.69922V6.41602H0.544922V1.79297H20.584V6.41602ZM28.7754 27.4395C25.7754 27.4395 23.4141 26.6016 21.6914 24.9258C19.9805 23.2383 19.125 20.9531 19.125 18.0703C19.125 15.0938 20.0156 12.7676 21.7969 11.0918C23.5781 9.4043 25.9863 8.56055 29.0215 8.56055C32.0098 8.56055 34.3535 9.4043 36.0527 11.0918C37.752 12.7676 38.6016 14.9883 38.6016 17.7539C38.6016 20.7422 37.7227 23.1035 35.9648 24.8379C34.2188 26.5723 31.8223 27.4395 28.7754 27.4395ZM28.916 12.8145C27.6035 12.8145 26.584 13.2656 25.8574 14.168C25.1309 15.0703 24.7676 16.3477 24.7676 18C24.7676 21.457 26.1621 23.1855 28.9512 23.1855C31.6113 23.1855 32.9414 21.4102 32.9414 17.8594C32.9414 14.4961 31.5996 12.8145 28.916 12.8145ZM50.7832 27.4395C47.7832 27.4395 45.4219 26.6016 43.6992 24.9258C41.9883 23.2383 41.1328 20.9531 41.1328 18.0703C41.1328 15.0938 42.0234 12.7676 43.8047 11.0918C45.5859 9.4043 47.9941 8.56055 51.0293 8.56055C54.0176 8.56055 56.3613 9.4043 58.0605 11.0918C59.7598 12.7676 60.6094 14.9883 60.6094 17.7539C60.6094 20.7422 59.7305 23.1035 57.9727 24.8379C56.2266 26.5723 53.8301 27.4395 50.7832 27.4395ZM50.9238 12.8145C49.6113 12.8145 48.5918 13.2656 47.8652 14.168C47.1387 15.0703 46.7754 16.3477 46.7754 18C46.7754 21.457 48.1699 23.1855 50.959 23.1855C53.6191 23.1855 54.9492 21.4102 54.9492 17.8594C54.9492 14.4961 53.6074 12.8145 50.9238 12.8145ZM69.7676 27H64.2129V0.351562H69.7676V27ZM96.8027 27H91.1074V16.7344H80.666V27H74.9883V1.79297H80.666V11.8477H91.1074V1.79297H96.8027V27ZM119.145 27H113.607V24.2578H113.52C112.148 26.3789 110.314 27.4395 108.018 27.4395C103.846 27.4395 101.76 24.9141 101.76 19.8633V9H107.297V19.3711C107.297 21.9141 108.305 23.1855 110.32 23.1855C111.316 23.1855 112.113 22.8398 112.711 22.1484C113.309 21.4453 113.607 20.4961 113.607 19.3008V9H119.145V27ZM129.463 24.9082H129.393V27H123.838V0.351562H129.393V11.707H129.463C130.834 9.60938 132.785 8.56055 135.316 8.56055C137.637 8.56055 139.424 9.35742 140.678 10.9512C141.932 12.5449 142.559 14.7246 142.559 17.4902C142.559 20.4902 141.826 22.8984 140.361 24.7148C138.896 26.5312 136.939 27.4395 134.49 27.4395C132.275 27.4395 130.6 26.5957 129.463 24.9082ZM129.305 17.3145V19.1602C129.305 20.3203 129.639 21.2812 130.307 22.043C130.975 22.8047 131.83 23.1855 132.873 23.1855C134.139 23.1855 135.117 22.6992 135.809 21.7266C136.512 20.7422 136.863 19.3535 136.863 17.5605C136.863 16.0723 136.541 14.9121 135.896 14.0801C135.264 13.2363 134.355 12.8145 133.172 12.8145C132.059 12.8145 131.133 13.2305 130.395 14.0625C129.668 14.8945 129.305 15.9785 129.305 17.3145Z" fill="white"/>
</svg>
